<svg xmlns="http://www.w3.org/2000/svg" viewBox="0 0 100 120" fill="none"
     stroke="currentColor" stroke-width="3.5" stroke-linecap="round" stroke-linejoin="round">
  <title>saci — chaos, bottled</title>
  <!-- lid -->
  <path d="M35 12 h30 a3 3 0 0 1 3 3 v6 H32 v-6 a3 3 0 0 1 3 -3 Z"/>
  <!-- jar -->
  <path d="M30 21 h40 v4 l4 6 a8 8 0 0 1 2 5 v58 a10 10 0 0 1 -10 10 H34 a10 10 0 0 1 -10 -10 V36 a8 8 0 0 1 2 -5 l4 -6 Z"/>
  <!-- whirlwind funnel -->
  <path d="M38 46 q12 -6 24 0"/>
  <path d="M40 58 q10 -5 20 0"/>
  <path d="M43 70 q7 -4 14 0"/>
  <path d="M46 82 q4 -3 8 0"/>
  <!-- swirl tail -->
  <path d="M50 88 q-4 6 2 10 q5 3 8 -2" stroke-width="2.5"/>
</svg>
