<svg xmlns="http://www.w3.org/2000/svg" viewBox="0 0 1200 320" fill="none">
  <rect width="1200" height="320" rx="32" fill="#16161a"/>
  <rect x="3" y="3" width="1194" height="314" rx="30" fill="none" stroke="#eab308" stroke-width="5" opacity="0.7"/>
  <g transform="translate(58 46) scale(2)" stroke="#eab308" stroke-linecap="round" stroke-linejoin="round" fill="none" stroke-width="4">
    <circle cx="60" cy="30" r="4.5"/>
    <path d="M60 36 v6"/>
    <path d="M26 80 a34 36 0 0 1 68 0"/>
    <path d="M33 72 a28 30 0 0 1 14 -20" stroke-width="3" opacity="0.5"/>
    <path d="M22 80 h76 a9 9 0 0 1 -9 9 H31 a9 9 0 0 1 -9 -9 Z"/>
  </g>
  <g fill="#ffffff">
    <path transform="translate(320.00 165.00) scale(0.104000 -0.104000)" d="M303 -14Q231 -14 172.5 16.0Q114 46 80.0 103.0Q46 160 46 241V255Q46 336 80.0 393.0Q114 450 172.5 480.0Q231 510 303 510Q374 510 425.0 485.0Q476 460 507.5 416.5Q539 373 549 318L427 292Q423 322 409.0 346.0Q395 370 369.5 384.0Q344 398 306 398Q268 398 237.5 381.5Q207 365 189.5 332.5Q172 300 172 253V243Q172 196 189.5 163.5Q207 131 237.5 114.5Q268 98 306 98Q363 98 392.5 127.5Q422 157 430 205L552 176Q539 123 507.5 79.5Q476 36 425.0 11.0Q374 -14 303 -14Z"/>
    <path transform="translate(377.94 165.00) scale(0.104000 -0.104000)" d="M70 0V700H196V435H214Q222 451 239.0 467.0Q256 483 284.5 493.5Q313 504 357 504Q415 504 458.5 477.5Q502 451 526.0 404.5Q550 358 550 296V0H424V286Q424 342 396.5 370.0Q369 398 318 398Q260 398 228.0 359.5Q196 321 196 252V0Z"/>
    <path transform="translate(439.01 165.00) scale(0.104000 -0.104000)" d="M296 -14Q222 -14 165.5 17.5Q109 49 77.5 106.5Q46 164 46 242V254Q46 332 77.0 389.5Q108 447 164.0 478.5Q220 510 294 510Q367 510 421.0 477.5Q475 445 505.0 387.5Q535 330 535 254V211H174Q176 160 212.0 128.0Q248 96 300 96Q353 96 378.0 119.0Q403 142 416 170L519 116Q505 90 478.5 59.5Q452 29 408.0 7.5Q364 -14 296 -14ZM175 305H407Q403 348 372.5 374.0Q342 400 293 400Q242 400 212.0 374.0Q182 348 175 305Z"/>
    <path transform="translate(496.02 165.00) scale(0.104000 -0.104000)" d="M152 0V392H26V496H152V588Q152 639 182.5 669.5Q213 700 262 700H392V596H306Q278 596 278 566V496H408V392H278V0Z"/>
    <path transform="translate(538.36 165.00) scale(0.104000 -0.104000)" d="M296 -14Q222 -14 165.5 17.5Q109 49 77.5 106.5Q46 164 46 242V254Q46 332 77.0 389.5Q108 447 164.0 478.5Q220 510 294 510Q367 510 421.0 477.5Q475 445 505.0 387.5Q535 330 535 254V211H174Q176 160 212.0 128.0Q248 96 300 96Q353 96 378.0 119.0Q403 142 416 170L519 116Q505 90 478.5 59.5Q452 29 408.0 7.5Q364 -14 296 -14ZM175 305H407Q403 348 372.5 374.0Q342 400 293 400Q242 400 212.0 374.0Q182 348 175 305Z"/>
  </g>
  <g fill="#eab308">
    <path transform="translate(325.00 220.00) scale(0.032000 -0.032000)" d="M336.2501220703125 -14Q207.39990234375 -14 131.1497802734375 58.5Q54.899658203125 131 54.899658203125 267.7498779296875V432.2501220703125Q54.899658203125 569 131.1497802734375 641.5Q207.39990234375 714 336.2501220703125 714Q465.100341796875 714 541.3504638671875 641.5Q617.6005859375 569 617.6005859375 432.2501220703125V267.7498779296875Q617.6005859375 131 541.3504638671875 58.5Q465.100341796875 -14 336.2501220703125 -14ZM336.2501220703125 83.00146484375Q418.6495361328125 83.00146484375 464.02423095703125 131.60107421875Q509.39892578125 180.20068359375 509.39892578125 264.4498291015625V435.5501708984375Q509.39892578125 519.79931640625 464.02423095703125 568.39892578125Q418.6495361328125 616.99853515625 336.2501220703125 616.99853515625Q254.8507080078125 616.99853515625 208.97601318359375 568.39892578125Q163.101318359375 519.79931640625 163.101318359375 435.5501708984375V264.4498291015625Q163.101318359375 180.20068359375 208.97601318359375 131.60107421875Q254.8507080078125 83.00146484375 336.2501220703125 83.00146484375Z"/>
    <path transform="translate(346.54 220.00) scale(0.032000 -0.032000)" d="M76.299560546875 0V492.500244140625H177.201171875V418.7508544921875H193.101318359375Q207.201171875 449.300537109375 243.0009765625 475.2503662109375Q278.80078125 501.2001953125 349.6505126953125 501.2001953125Q405.900634765625 501.2001953125 449.57562255859375 476.27508544921875Q493.2506103515625 451.3499755859375 518.1255493164062 405.5499267578125Q543.00048828125 359.7498779296875 543.00048828125 296V0H440.098876953125V288.099853515625Q440.098876953125 352.499267578125 408.22418212890625 382.9490966796875Q376.3494873046875 413.39892578125 319.7498779296875 413.39892578125Q255.80029296875 413.39892578125 217.500732421875 371.0491943359375Q179.201171875 328.699462890625 179.201171875 248.8502197265625V0Z"/>
    <path transform="translate(366.22 220.00) scale(0.032000 -0.032000)" d="M301.599609375 -14Q227.2496337890625 -14 171.099609375 17.5Q114.9495849609375 49 83.62457275390625 106.32501220703125Q52.299560546875 163.6500244140625 52.299560546875 240.2501220703125V252.2501220703125Q52.299560546875 329.2001953125 83.299560546875 386.3502197265625Q114.299560546875 443.500244140625 169.77459716796875 475.000244140625Q225.2496337890625 506.500244140625 297.8497314453125 506.500244140625Q369.099853515625 506.500244140625 422.57489013671875 475.400146484375Q476.0499267578125 444.300048828125 506.0499267578125 388.199951171875Q536.0499267578125 332.099853515625 536.0499267578125 256.7998046875V217.6495361328125H156.501220703125Q158.8511962890625 152.6505126953125 200.62579345703125 114.52593994140625Q242.400390625 76.4013671875 304.19970703125 76.4013671875Q362.4493408203125 76.4013671875 391.82403564453125 102.201171875Q421.19873046875 128.0009765625 436.6485595703125 161.9505615234375L522.499755859375 118.4498291015625Q508.1497802734375 90 481.6497802734375 59.1500244140625Q455.1497802734375 28.300048828125 411.8497314453125 7.1500244140625Q368.5496826171875 -14 301.599609375 -14ZM157.501220703125 296.9505615234375H431.498291015625Q427.498291015625 352.5496826171875 391.22369384765625 384.32427978515625Q354.9490966796875 416.098876953125 297.19970703125 416.098876953125Q238.500244140625 416.098876953125 202.20068359375 384.32427978515625Q165.901123046875 352.5496826171875 157.501220703125 296.9505615234375Z"/>
    <path transform="translate(393.06 220.00) scale(0.032000 -0.032000)" d="M76.299560546875 0V492.500244140625H177.201171875V435.00048828125H193.101318359375Q206.80126953125 460.700439453125 237.8511962890625 480.9503173828125Q268.901123046875 501.2001953125 322.100830078125 501.2001953125Q377.20068359375 501.2001953125 410.77557373046875 478.42535400390625Q444.3504638671875 455.6505126953125 461.00048828125 420.900634765625H476.900634765625Q493.900634765625 455.00048828125 526.6505126953125 478.100341796875Q559.400390625 501.2001953125 619.2001953125 501.2001953125Q666.60009765625 501.2001953125 703.9251098632812 481.3502197265625Q741.2501220703125 461.500244140625 763.2251586914062 423.0501708984375Q785.2001953125 384.60009765625 785.2001953125 328.4498291015625V0H682.298583984375V320.499755859375Q682.298583984375 365.3494873046875 657.6238403320312 389.69921875Q632.9490966796875 414.0489501953125 588.299560546875 414.0489501953125Q540.0499267578125 414.0489501953125 511.12530517578125 383.0491943359375Q482.20068359375 352.0494384765625 482.20068359375 293.699951171875V0H379.299072265625V320.499755859375Q379.299072265625 365.3494873046875 354.62432861328125 389.69921875Q329.9495849609375 414.0489501953125 285.300048828125 414.0489501953125Q237.0504150390625 414.0489501953125 208.12579345703125 383.0491943359375Q179.201171875 352.0494384765625 179.201171875 293.699951171875V0Z"/>
    <path transform="translate(420.49 220.00) scale(0.032000 -0.032000)" d="M228.5496826171875 -14Q176.2496337890625 -14 134.42462158203125 4.1500244140625Q92.599609375 22.300048828125 68.27459716796875 57.27508544921875Q43.9495849609375 92.2501220703125 43.9495849609375 142.2001953125Q43.9495849609375 192.500244140625 68.27459716796875 226.12530517578125Q92.599609375 259.7503662109375 135.22467041015625 276.72540283203125Q177.8497314453125 293.700439453125 231.7498779296875 293.700439453125H382.4488525390625V325.5501708984375Q382.4488525390625 368.9495849609375 356.2491455078125 395.12432861328125Q330.0494384765625 421.299072265625 276.099853515625 421.299072265625Q223.1502685546875 421.299072265625 195.07562255859375 396.29931640625Q167.0009765625 371.299560546875 157.901123046875 330.6500244140625L62.19970703125 361.9505615234375Q74.19970703125 401.700439453125 100.52471923828125 434.2503662109375Q126.8497314453125 466.80029296875 170.82476806640625 486.6502685546875Q214.7998046875 506.500244140625 277.39990234375 506.500244140625Q373.300048828125 506.500244140625 428.02520751953125 457.8502197265625Q482.7503662109375 409.2001953125 482.7503662109375 318.6500244140625V115.80126953125Q482.7503662109375 85.80126953125 510.7503662109375 85.80126953125H553.2001953125V0H476.19970703125Q441.299560546875 0 419.3994140625 18.17498779296875Q397.499267578125 36.3499755859375 397.499267578125 67.0499267578125V70.1497802734375H381.6490478515625Q374.499267578125 54.6500244140625 358.22442626953125 34.62506103515625Q341.9495849609375 14.60009765625 310.899658203125 0.300048828125Q279.8497314453125 -14 228.5496826171875 -14ZM244.2501220703125 71.201171875Q305.6495361328125 71.201171875 344.0491943359375 106.6507568359375Q382.4488525390625 142.100341796875 382.4488525390625 203.699462890625V214.3994140625H237.9500732421875Q197.00048828125 214.3994140625 171.92584228515625 196.77459716796875Q146.8511962890625 179.1497802734375 146.8511962890625 145.1502685546875Q146.8511962890625 111.1507568359375 172.92584228515625 91.17596435546875Q199.00048828125 71.201171875 244.2501220703125 71.201171875Z"/>
    <path transform="translate(438.95 220.00) scale(0.032000 -0.032000)" d="M76.299560546875 0V492.500244140625H177.201171875V418.7508544921875H193.101318359375Q207.201171875 449.300537109375 243.0009765625 475.2503662109375Q278.80078125 501.2001953125 349.6505126953125 501.2001953125Q405.900634765625 501.2001953125 449.57562255859375 476.27508544921875Q493.2506103515625 451.3499755859375 518.1255493164062 405.5499267578125Q543.00048828125 359.7498779296875 543.00048828125 296V0H440.098876953125V288.099853515625Q440.098876953125 352.499267578125 408.22418212890625 382.9490966796875Q376.3494873046875 413.39892578125 319.7498779296875 413.39892578125Q255.80029296875 413.39892578125 217.500732421875 371.0491943359375Q179.201171875 328.699462890625 179.201171875 248.8502197265625V0Z"/>
    <path transform="translate(458.63 220.00) scale(0.032000 -0.032000)" d="M76.299560546875 0V492.500244140625H179.201171875V0ZM127.7503662109375 559.599609375Q97.9500732421875 559.599609375 77.42486572265625 579.1497802734375Q56.899658203125 598.699951171875 56.899658203125 629.80029296875Q56.899658203125 661.2506103515625 77.42486572265625 680.6257934570312Q97.9500732421875 700.0009765625 127.7503662109375 700.0009765625Q158.5506591796875 700.0009765625 178.57586669921875 680.6257934570312Q198.60107421875 661.2506103515625 198.60107421875 629.80029296875Q198.60107421875 598.699951171875 178.57586669921875 579.1497802734375Q158.5506591796875 559.599609375 127.7503662109375 559.599609375Z"/>
    <path transform="translate(466.82 220.00) scale(0.032000 -0.032000)" d="M165.299072265625 0V405.9990234375H27.39990234375V492.500244140625H165.299072265625V600.59912109375Q165.299072265625 646.3494873046875 191.9493408203125 673.1747436523438Q218.599609375 700 264.099853515625 700H390.60009765625V613.498779296875H296.900634765625Q268.20068359375 613.498779296875 268.20068359375 583.498779296875V492.500244140625H410.099853515625V405.9990234375H268.20068359375V0Z"/>
    <path transform="translate(480.87 220.00) scale(0.032000 -0.032000)" d="M301.599609375 -14Q227.2496337890625 -14 171.099609375 17.5Q114.9495849609375 49 83.62457275390625 106.32501220703125Q52.299560546875 163.6500244140625 52.299560546875 240.2501220703125V252.2501220703125Q52.299560546875 329.2001953125 83.299560546875 386.3502197265625Q114.299560546875 443.500244140625 169.77459716796875 475.000244140625Q225.2496337890625 506.500244140625 297.8497314453125 506.500244140625Q369.099853515625 506.500244140625 422.57489013671875 475.400146484375Q476.0499267578125 444.300048828125 506.0499267578125 388.199951171875Q536.0499267578125 332.099853515625 536.0499267578125 256.7998046875V217.6495361328125H156.501220703125Q158.8511962890625 152.6505126953125 200.62579345703125 114.52593994140625Q242.400390625 76.4013671875 304.19970703125 76.4013671875Q362.4493408203125 76.4013671875 391.82403564453125 102.201171875Q421.19873046875 128.0009765625 436.6485595703125 161.9505615234375L522.499755859375 118.4498291015625Q508.1497802734375 90 481.6497802734375 59.1500244140625Q455.1497802734375 28.300048828125 411.8497314453125 7.1500244140625Q368.5496826171875 -14 301.599609375 -14ZM157.501220703125 296.9505615234375H431.498291015625Q427.498291015625 352.5496826171875 391.22369384765625 384.32427978515625Q354.9490966796875 416.098876953125 297.19970703125 416.098876953125Q238.500244140625 416.098876953125 202.20068359375 384.32427978515625Q165.901123046875 352.5496826171875 157.501220703125 296.9505615234375Z"/>
    <path transform="translate(499.56 220.00) scale(0.032000 -0.032000)" d="M277.7498779296875 -14Q183.899658203125 -14 121.72467041015625 28.0Q59.5496826171875 70 46.19970703125 154.6495361328125L142.2510986328125 178Q149.60107421875 136.700439453125 168.90087890625 113.02569580078125Q188.20068359375 89.3509521484375 216.5504150390625 79.27606201171875Q244.900146484375 69.201171875 277.7498779296875 69.201171875Q327.3494873046875 69.201171875 353.77410888671875 87.8509521484375Q380.19873046875 106.500732421875 380.19873046875 136.500244140625Q380.19873046875 166.8497314453125 355.12408447265625 180.92462158203125Q330.0494384765625 194.99951171875 281.499755859375 203.699462890625L247.2001953125 209.7493896484375Q197.300048828125 219.0494384765625 156.39990234375 236.199462890625Q115.499755859375 253.3494873046875 91.07464599609375 283.299560546875Q66.6495361328125 313.2496337890625 66.6495361328125 359.7998046875Q66.6495361328125 429.9500732421875 119.07464599609375 468.22515869140625Q171.499755859375 506.500244140625 257.39990234375 506.500244140625Q340.39990234375 506.500244140625 393.82501220703125 469.32525634765625Q447.2501220703125 432.1502685546875 462.8502197265625 368.300537109375L367.19873046875 340.699951171875Q358.498779296875 385.699462890625 329.4490966796875 404.499267578125Q300.3994140625 423.299072265625 257.39990234375 423.299072265625Q214.7503662109375 423.299072265625 190.8507080078125 407.82427978515625Q166.9510498046875 392.3494873046875 166.9510498046875 363.699951171875Q166.9510498046875 334.100341796875 190.4508056640625 320.1505126953125Q213.9505615234375 306.20068359375 254.2501220703125 299.1507568359375L288.5496826171875 293.100830078125Q342.4498291015625 283.80078125 386.02496337890625 267.6507568359375Q429.60009765625 251.500732421875 455.0501708984375 221.87567138671875Q480.500244140625 192.2506103515625 480.500244140625 142.3504638671875Q480.500244140625 67.500244140625 425.57513427734375 26.7501220703125Q370.6500244140625 -14 277.7498779296875 -14Z"/>
    <path transform="translate(516.36 220.00) scale(0.032000 -0.032000)" d="M261.39990234375 0Q215.899658203125 0 189.2493896484375 26.82525634765625Q162.59912109375 53.6505126953125 162.59912109375 99.40087890625V405.9990234375H27.39990234375V492.500244140625H162.59912109375V656.299560546875H265.500732421875V492.500244140625H413.39990234375V405.9990234375H265.500732421875V116.501220703125Q265.500732421875 86.501220703125 294.20068359375 86.501220703125H396.500244140625V0Z"/>
    <path transform="translate(539.18 220.00) scale(0.032000 -0.032000)" d="M165.299072265625 0V405.9990234375H27.39990234375V492.500244140625H165.299072265625V600.59912109375Q165.299072265625 646.3494873046875 191.9493408203125 673.1747436523438Q218.599609375 700 264.099853515625 700H390.60009765625V613.498779296875H296.900634765625Q268.20068359375 613.498779296875 268.20068359375 583.498779296875V492.500244140625H410.099853515625V405.9990234375H268.20068359375V0Z"/>
    <path transform="translate(553.22 220.00) scale(0.032000 -0.032000)" d="M307.39990234375 -14Q233.39990234375 -14 175.62481689453125 16.52496337890625Q117.8497314453125 47.0499267578125 85.07464599609375 103.87493896484375Q52.299560546875 160.699951171875 52.299560546875 238.9500732421875V253.5501708984375Q52.299560546875 331.80029296875 85.07464599609375 388.62530517578125Q117.8497314453125 445.4503173828125 175.62481689453125 475.97528076171875Q233.39990234375 506.500244140625 307.39990234375 506.500244140625Q381.39990234375 506.500244140625 439.17498779296875 475.97528076171875Q496.9500732421875 445.4503173828125 529.7251586914062 388.62530517578125Q562.500244140625 331.80029296875 562.500244140625 253.5501708984375V238.9500732421875Q562.500244140625 160.699951171875 529.7251586914062 103.87493896484375Q496.9500732421875 47.0499267578125 439.17498779296875 16.52496337890625Q381.39990234375 -14 307.39990234375 -14ZM307.39990234375 77.701416015625Q375.19921875 77.701416015625 417.39892578125 121.1510009765625Q459.5986328125 164.6005859375 459.5986328125 241.60009765625V250.900146484375Q459.5986328125 327.899658203125 417.72393798828125 371.3492431640625Q375.8492431640625 414.798828125 307.39990234375 414.798828125Q239.9505615234375 414.798828125 197.57586669921875 371.3492431640625Q155.201171875 327.899658203125 155.201171875 250.900146484375V241.60009765625Q155.201171875 164.6005859375 197.57586669921875 121.1510009765625Q239.9505615234375 77.701416015625 307.39990234375 77.701416015625Z"/>
    <path transform="translate(572.90 220.00) scale(0.032000 -0.032000)" d="M76.299560546875 0V492.500244140625H177.201171875V434.7503662109375H193.101318359375Q205.1512451171875 465.80029296875 231.3511962890625 480.1502685546875Q257.5511474609375 494.500244140625 296.80078125 494.500244140625H355.7508544921875V402.098876953125H293.0509033203125Q242.60107421875 402.098876953125 210.901123046875 374.67401123046875Q179.201171875 347.2491455078125 179.201171875 289.699462890625V0Z"/>
    <path transform="translate(593.45 220.00) scale(0.032000 -0.032000)" d="M301.599609375 -14Q227.2496337890625 -14 171.099609375 17.5Q114.9495849609375 49 83.62457275390625 106.32501220703125Q52.299560546875 163.6500244140625 52.299560546875 240.2501220703125V252.2501220703125Q52.299560546875 329.2001953125 83.299560546875 386.3502197265625Q114.299560546875 443.500244140625 169.77459716796875 475.000244140625Q225.2496337890625 506.500244140625 297.8497314453125 506.500244140625Q369.099853515625 506.500244140625 422.57489013671875 475.400146484375Q476.0499267578125 444.300048828125 506.0499267578125 388.199951171875Q536.0499267578125 332.099853515625 536.0499267578125 256.7998046875V217.6495361328125H156.501220703125Q158.8511962890625 152.6505126953125 200.62579345703125 114.52593994140625Q242.400390625 76.4013671875 304.19970703125 76.4013671875Q362.4493408203125 76.4013671875 391.82403564453125 102.201171875Q421.19873046875 128.0009765625 436.6485595703125 161.9505615234375L522.499755859375 118.4498291015625Q508.1497802734375 90 481.6497802734375 59.1500244140625Q455.1497802734375 28.300048828125 411.8497314453125 7.1500244140625Q368.5496826171875 -14 301.599609375 -14ZM157.501220703125 296.9505615234375H431.498291015625Q427.498291015625 352.5496826171875 391.22369384765625 384.32427978515625Q354.9490966796875 416.098876953125 297.19970703125 416.098876953125Q238.500244140625 416.098876953125 202.20068359375 384.32427978515625Q165.901123046875 352.5496826171875 157.501220703125 296.9505615234375Z"/>
    <path transform="translate(612.14 220.00) scale(0.032000 -0.032000)" d="M190.098876953125 0 23.699462890625 492.500244140625H133.201171875L263.9500732421875 75.901123046875H279.8502197265625L410.59912109375 492.500244140625H520.100830078125L353.701416015625 0Z"/>
    <path transform="translate(629.54 220.00) scale(0.032000 -0.032000)" d="M301.599609375 -14Q227.2496337890625 -14 171.099609375 17.5Q114.9495849609375 49 83.62457275390625 106.32501220703125Q52.299560546875 163.6500244140625 52.299560546875 240.2501220703125V252.2501220703125Q52.299560546875 329.2001953125 83.299560546875 386.3502197265625Q114.299560546875 443.500244140625 169.77459716796875 475.000244140625Q225.2496337890625 506.500244140625 297.8497314453125 506.500244140625Q369.099853515625 506.500244140625 422.57489013671875 475.400146484375Q476.0499267578125 444.300048828125 506.0499267578125 388.199951171875Q536.0499267578125 332.099853515625 536.0499267578125 256.7998046875V217.6495361328125H156.501220703125Q158.8511962890625 152.6505126953125 200.62579345703125 114.52593994140625Q242.400390625 76.4013671875 304.19970703125 76.4013671875Q362.4493408203125 76.4013671875 391.82403564453125 102.201171875Q421.19873046875 128.0009765625 436.6485595703125 161.9505615234375L522.499755859375 118.4498291015625Q508.1497802734375 90 481.6497802734375 59.1500244140625Q455.1497802734375 28.300048828125 411.8497314453125 7.1500244140625Q368.5496826171875 -14 301.599609375 -14ZM157.501220703125 296.9505615234375H431.498291015625Q427.498291015625 352.5496826171875 391.22369384765625 384.32427978515625Q354.9490966796875 416.098876953125 297.19970703125 416.098876953125Q238.500244140625 416.098876953125 202.20068359375 384.32427978515625Q165.901123046875 352.5496826171875 157.501220703125 296.9505615234375Z"/>
    <path transform="translate(648.23 220.00) scale(0.032000 -0.032000)" d="M76.299560546875 0V492.500244140625H177.201171875V434.7503662109375H193.101318359375Q205.1512451171875 465.80029296875 231.3511962890625 480.1502685546875Q257.5511474609375 494.500244140625 296.80078125 494.500244140625H355.7508544921875V402.098876953125H293.0509033203125Q242.60107421875 402.098876953125 210.901123046875 374.67401123046875Q179.201171875 347.2491455078125 179.201171875 289.699462890625V0Z"/>
    <path transform="translate(660.62 220.00) scale(0.032000 -0.032000)" d="M132.7493896484375 -200V-109.5986328125H407.6490478515625Q436.3489990234375 -109.5986328125 436.3489990234375 -79.5986328125V71.6495361328125H420.4488525390625Q411.0489501953125 52.19970703125 392.47406005859375 33.62481689453125Q373.899169921875 15.0499267578125 342.97430419921875 3.17498779296875Q312.0494384765625 -8.699951171875 264.599609375 -8.699951171875Q208.699462890625 -8.699951171875 164.8494873046875 16.22515869140625Q120.99951171875 41.1502685546875 96.12457275390625 87.100341796875Q71.2496337890625 133.0504150390625 71.2496337890625 196.1502685546875V492.500244140625H174.1512451171875V204.0504150390625Q174.1512451171875 140.0009765625 206.02593994140625 109.5511474609375Q237.900634765625 79.101318359375 294.500244140625 79.101318359375Q358.4498291015625 79.101318359375 396.7493896484375 121.27606201171875Q435.0489501953125 163.4508056640625 435.0489501953125 243.300048828125V492.500244140625H537.9505615234375V-100.59912109375Q537.9505615234375 -146.3494873046875 511.62530517578125 -173.17474365234375Q485.300048828125 -200 439.1497802734375 -200Z"/>
    <path transform="translate(688.42 220.00) scale(0.032000 -0.032000)" d="M76.299560546875 -200V492.500244140625H177.201171875V422.3509521484375H193.101318359375Q211.501220703125 455.20068359375 250.47601318359375 480.8504638671875Q289.4508056640625 506.500244140625 361.00048828125 506.500244140625Q422.7503662109375 506.500244140625 474.4503173828125 476.6502685546875Q526.1502685546875 446.80029296875 557.3252563476562 390.1502685546875Q588.500244140625 333.500244140625 588.500244140625 253.5501708984375V238.9500732421875Q588.500244140625 159.3499755859375 557.500244140625 102.52496337890625Q526.500244140625 45.699951171875 474.80029296875 15.8499755859375Q423.100341796875 -14 361.00048828125 -14Q313.20068359375 -14 280.2508544921875 -2.10009765625Q247.301025390625 9.7998046875 227.0511474609375 28.57464599609375Q206.80126953125 47.3494873046875 195.101318359375 66.79931640625H179.201171875V-200ZM331.39990234375 76.4013671875Q398.79931640625 76.4013671875 441.8489990234375 119.32598876953125Q484.898681640625 162.2506103515625 484.898681640625 241.60009765625V250.900146484375Q484.898681640625 330.2496337890625 441.52398681640625 373.17425537109375Q398.1492919921875 416.098876953125 331.39990234375 416.098876953125Q265.00048828125 416.098876953125 221.4508056640625 373.17425537109375Q177.901123046875 330.2496337890625 177.901123046875 250.900146484375V241.60009765625Q177.901123046875 162.2506103515625 221.4508056640625 119.32598876953125Q265.00048828125 76.4013671875 331.39990234375 76.4013671875Z"/>
    <path transform="translate(708.94 220.00) scale(0.032000 -0.032000)" d="M228.5496826171875 -14Q176.2496337890625 -14 134.42462158203125 4.1500244140625Q92.599609375 22.300048828125 68.27459716796875 57.27508544921875Q43.9495849609375 92.2501220703125 43.9495849609375 142.2001953125Q43.9495849609375 192.500244140625 68.27459716796875 226.12530517578125Q92.599609375 259.7503662109375 135.22467041015625 276.72540283203125Q177.8497314453125 293.700439453125 231.7498779296875 293.700439453125H382.4488525390625V325.5501708984375Q382.4488525390625 368.9495849609375 356.2491455078125 395.12432861328125Q330.0494384765625 421.299072265625 276.099853515625 421.299072265625Q223.1502685546875 421.299072265625 195.07562255859375 396.29931640625Q167.0009765625 371.299560546875 157.901123046875 330.6500244140625L62.19970703125 361.9505615234375Q74.19970703125 401.700439453125 100.52471923828125 434.2503662109375Q126.8497314453125 466.80029296875 170.82476806640625 486.6502685546875Q214.7998046875 506.500244140625 277.39990234375 506.500244140625Q373.300048828125 506.500244140625 428.02520751953125 457.8502197265625Q482.7503662109375 409.2001953125 482.7503662109375 318.6500244140625V115.80126953125Q482.7503662109375 85.80126953125 510.7503662109375 85.80126953125H553.2001953125V0H476.19970703125Q441.299560546875 0 419.3994140625 18.17498779296875Q397.499267578125 36.3499755859375 397.499267578125 67.0499267578125V70.1497802734375H381.6490478515625Q374.499267578125 54.6500244140625 358.22442626953125 34.62506103515625Q341.9495849609375 14.60009765625 310.899658203125 0.300048828125Q279.8497314453125 -14 228.5496826171875 -14ZM244.2501220703125 71.201171875Q305.6495361328125 71.201171875 344.0491943359375 106.6507568359375Q382.4488525390625 142.100341796875 382.4488525390625 203.699462890625V214.3994140625H237.9500732421875Q197.00048828125 214.3994140625 171.92584228515625 196.77459716796875Q146.8511962890625 179.1497802734375 146.8511962890625 145.1502685546875Q146.8511962890625 111.1507568359375 172.92584228515625 91.17596435546875Q199.00048828125 71.201171875 244.2501220703125 71.201171875Z"/>
    <path transform="translate(727.40 220.00) scale(0.032000 -0.032000)" d="M305.4498291015625 -14Q233.7998046875 -14 176.3497314453125 16.17498779296875Q118.899658203125 46.3499755859375 85.599609375 103.3499755859375Q52.299560546875 160.3499755859375 52.299560546875 239.9500732421875V252.5501708984375Q52.299560546875 332.500244140625 85.599609375 389.32525634765625Q118.899658203125 446.1502685546875 176.3497314453125 476.32525634765625Q233.7998046875 506.500244140625 305.4498291015625 506.500244140625Q376.099853515625 506.500244140625 426.22491455078125 480.97528076171875Q476.3499755859375 455.4503173828125 506.4500732421875 412.30029296875Q536.5501708984375 369.1502685546875 545.500244140625 316.9500732421875L445.5487060546875 295.8497314453125Q441.19873046875 328.99951171875 425.098876953125 355.97430419921875Q408.9990234375 382.9490966796875 379.82427978515625 398.87396240234375Q350.6495361328125 414.798828125 307.39990234375 414.798828125Q264.1502685546875 414.798828125 229.62554931640625 395.4990234375Q195.100830078125 376.19921875 175.1510009765625 339.49951171875Q155.201171875 302.7998046875 155.201171875 250.900146484375V241.60009765625Q155.201171875 189.700439453125 175.1510009765625 153.000732421875Q195.100830078125 116.301025390625 229.62554931640625 97.001220703125Q264.1502685546875 77.701416015625 307.39990234375 77.701416015625Q372.4493408203125 77.701416015625 406.32403564453125 111.401123046875Q440.19873046875 145.100830078125 448.898681640625 197.300537109375L548.8502197265625 174.2501220703125Q537.2501220703125 123.3499755859375 506.800048828125 80.199951171875Q476.3499755859375 37.0499267578125 426.22491455078125 11.52496337890625Q376.099853515625 -14 305.4498291015625 -14Z"/>
    <path transform="translate(746.34 220.00) scale(0.032000 -0.032000)" d="M76.299560546875 0V700H179.201171875V300.7508544921875H195.101318359375L388.8492431640625 492.500244140625H526.2510986328125L276.6025390625 253.5501708984375L534.2510986328125 0H398.499267578125L195.101318359375 204.699462890625H179.201171875V0Z"/>
    <path transform="translate(763.98 220.00) scale(0.032000 -0.032000)" d="M228.5496826171875 -14Q176.2496337890625 -14 134.42462158203125 4.1500244140625Q92.599609375 22.300048828125 68.27459716796875 57.27508544921875Q43.9495849609375 92.2501220703125 43.9495849609375 142.2001953125Q43.9495849609375 192.500244140625 68.27459716796875 226.12530517578125Q92.599609375 259.7503662109375 135.22467041015625 276.72540283203125Q177.8497314453125 293.700439453125 231.7498779296875 293.700439453125H382.4488525390625V325.5501708984375Q382.4488525390625 368.9495849609375 356.2491455078125 395.12432861328125Q330.0494384765625 421.299072265625 276.099853515625 421.299072265625Q223.1502685546875 421.299072265625 195.07562255859375 396.29931640625Q167.0009765625 371.299560546875 157.901123046875 330.6500244140625L62.19970703125 361.9505615234375Q74.19970703125 401.700439453125 100.52471923828125 434.2503662109375Q126.8497314453125 466.80029296875 170.82476806640625 486.6502685546875Q214.7998046875 506.500244140625 277.39990234375 506.500244140625Q373.300048828125 506.500244140625 428.02520751953125 457.8502197265625Q482.7503662109375 409.2001953125 482.7503662109375 318.6500244140625V115.80126953125Q482.7503662109375 85.80126953125 510.7503662109375 85.80126953125H553.2001953125V0H476.19970703125Q441.299560546875 0 419.3994140625 18.17498779296875Q397.499267578125 36.3499755859375 397.499267578125 67.0499267578125V70.1497802734375H381.6490478515625Q374.499267578125 54.6500244140625 358.22442626953125 34.62506103515625Q341.9495849609375 14.60009765625 310.899658203125 0.300048828125Q279.8497314453125 -14 228.5496826171875 -14ZM244.2501220703125 71.201171875Q305.6495361328125 71.201171875 344.0491943359375 106.6507568359375Q382.4488525390625 142.100341796875 382.4488525390625 203.699462890625V214.3994140625H237.9500732421875Q197.00048828125 214.3994140625 171.92584228515625 196.77459716796875Q146.8511962890625 179.1497802734375 146.8511962890625 145.1502685546875Q146.8511962890625 111.1507568359375 172.92584228515625 91.17596435546875Q199.00048828125 71.201171875 244.2501220703125 71.201171875Z"/>
    <path transform="translate(782.44 220.00) scale(0.032000 -0.032000)" d="M52.299560546875 244.2501220703125V258.8502197265625Q52.299560546875 336.500244140625 83.47454833984375 391.82525634765625Q114.6495361328125 447.1502685546875 166.67449951171875 476.82525634765625Q218.699462890625 506.500244140625 281.099365234375 506.500244140625Q353.299072265625 506.500244140625 391.62384033203125 479.87542724609375Q429.9486083984375 453.2506103515625 447.698486328125 422.3509521484375H463.5986328125V492.500244140625H563.80029296875V-100.59912109375Q563.80029296875 -146.3494873046875 537.6500244140625 -173.17474365234375Q511.499755859375 -200 465.3494873046875 -200H133.3494873046875V-109.5986328125H432.5487060546875Q461.5986328125 -109.5986328125 461.5986328125 -79.5986328125V77.3994140625H445.698486328125Q434.6485595703125 58.599609375 414.72369384765625 39.82476806640625Q394.798828125 21.0499267578125 362.3489990234375 8.82501220703125Q329.899169921875 -3.39990234375 281.099365234375 -3.39990234375Q218.699462890625 -3.39990234375 166.49951171875 26.27508544921875Q114.299560546875 55.9500732421875 83.299560546875 111.4500732421875Q52.299560546875 166.9500732421875 52.299560546875 244.2501220703125ZM309.39990234375 87.00146484375Q376.1492919921875 87.00146484375 419.52398681640625 129.2510986328125Q462.898681640625 171.500732421875 462.898681640625 246.900146484375V256.2001953125Q462.898681640625 332.599609375 419.8489990234375 374.3492431640625Q376.79931640625 416.098876953125 309.39990234375 416.098876953125Q243.00048828125 416.098876953125 199.4508056640625 374.3492431640625Q155.901123046875 332.599609375 155.901123046875 256.2001953125V246.900146484375Q155.901123046875 171.500732421875 199.4508056640625 129.2510986328125Q243.00048828125 87.00146484375 309.39990234375 87.00146484375Z"/>
    <path transform="translate(802.92 220.00) scale(0.032000 -0.032000)" d="M301.599609375 -14Q227.2496337890625 -14 171.099609375 17.5Q114.9495849609375 49 83.62457275390625 106.32501220703125Q52.299560546875 163.6500244140625 52.299560546875 240.2501220703125V252.2501220703125Q52.299560546875 329.2001953125 83.299560546875 386.3502197265625Q114.299560546875 443.500244140625 169.77459716796875 475.000244140625Q225.2496337890625 506.500244140625 297.8497314453125 506.500244140625Q369.099853515625 506.500244140625 422.57489013671875 475.400146484375Q476.0499267578125 444.300048828125 506.0499267578125 388.199951171875Q536.0499267578125 332.099853515625 536.0499267578125 256.7998046875V217.6495361328125H156.501220703125Q158.8511962890625 152.6505126953125 200.62579345703125 114.52593994140625Q242.400390625 76.4013671875 304.19970703125 76.4013671875Q362.4493408203125 76.4013671875 391.82403564453125 102.201171875Q421.19873046875 128.0009765625 436.6485595703125 161.9505615234375L522.499755859375 118.4498291015625Q508.1497802734375 90 481.6497802734375 59.1500244140625Q455.1497802734375 28.300048828125 411.8497314453125 7.1500244140625Q368.5496826171875 -14 301.599609375 -14ZM157.501220703125 296.9505615234375H431.498291015625Q427.498291015625 352.5496826171875 391.22369384765625 384.32427978515625Q354.9490966796875 416.098876953125 297.19970703125 416.098876953125Q238.500244140625 416.098876953125 202.20068359375 384.32427978515625Q165.901123046875 352.5496826171875 157.501220703125 296.9505615234375Z"/>
    <path transform="translate(829.77 220.00) scale(0.032000 -0.032000)" d="M76.299560546875 0V492.500244140625H177.201171875V435.00048828125H193.101318359375Q206.80126953125 460.700439453125 237.8511962890625 480.9503173828125Q268.901123046875 501.2001953125 322.100830078125 501.2001953125Q377.20068359375 501.2001953125 410.77557373046875 478.42535400390625Q444.3504638671875 455.6505126953125 461.00048828125 420.900634765625H476.900634765625Q493.900634765625 455.00048828125 526.6505126953125 478.100341796875Q559.400390625 501.2001953125 619.2001953125 501.2001953125Q666.60009765625 501.2001953125 703.9251098632812 481.3502197265625Q741.2501220703125 461.500244140625 763.2251586914062 423.0501708984375Q785.2001953125 384.60009765625 785.2001953125 328.4498291015625V0H682.298583984375V320.499755859375Q682.298583984375 365.3494873046875 657.6238403320312 389.69921875Q632.9490966796875 414.0489501953125 588.299560546875 414.0489501953125Q540.0499267578125 414.0489501953125 511.12530517578125 383.0491943359375Q482.20068359375 352.0494384765625 482.20068359375 293.699951171875V0H379.299072265625V320.499755859375Q379.299072265625 365.3494873046875 354.62432861328125 389.69921875Q329.9495849609375 414.0489501953125 285.300048828125 414.0489501953125Q237.0504150390625 414.0489501953125 208.12579345703125 383.0491943359375Q179.201171875 352.0494384765625 179.201171875 293.699951171875V0Z"/>
    <path transform="translate(857.19 220.00) scale(0.032000 -0.032000)" d="M228.5496826171875 -14Q176.2496337890625 -14 134.42462158203125 4.1500244140625Q92.599609375 22.300048828125 68.27459716796875 57.27508544921875Q43.9495849609375 92.2501220703125 43.9495849609375 142.2001953125Q43.9495849609375 192.500244140625 68.27459716796875 226.12530517578125Q92.599609375 259.7503662109375 135.22467041015625 276.72540283203125Q177.8497314453125 293.700439453125 231.7498779296875 293.700439453125H382.4488525390625V325.5501708984375Q382.4488525390625 368.9495849609375 356.2491455078125 395.12432861328125Q330.0494384765625 421.299072265625 276.099853515625 421.299072265625Q223.1502685546875 421.299072265625 195.07562255859375 396.29931640625Q167.0009765625 371.299560546875 157.901123046875 330.6500244140625L62.19970703125 361.9505615234375Q74.19970703125 401.700439453125 100.52471923828125 434.2503662109375Q126.8497314453125 466.80029296875 170.82476806640625 486.6502685546875Q214.7998046875 506.500244140625 277.39990234375 506.500244140625Q373.300048828125 506.500244140625 428.02520751953125 457.8502197265625Q482.7503662109375 409.2001953125 482.7503662109375 318.6500244140625V115.80126953125Q482.7503662109375 85.80126953125 510.7503662109375 85.80126953125H553.2001953125V0H476.19970703125Q441.299560546875 0 419.3994140625 18.17498779296875Q397.499267578125 36.3499755859375 397.499267578125 67.0499267578125V70.1497802734375H381.6490478515625Q374.499267578125 54.6500244140625 358.22442626953125 34.62506103515625Q341.9495849609375 14.60009765625 310.899658203125 0.300048828125Q279.8497314453125 -14 228.5496826171875 -14ZM244.2501220703125 71.201171875Q305.6495361328125 71.201171875 344.0491943359375 106.6507568359375Q382.4488525390625 142.100341796875 382.4488525390625 203.699462890625V214.3994140625H237.9500732421875Q197.00048828125 214.3994140625 171.92584228515625 196.77459716796875Q146.8511962890625 179.1497802734375 146.8511962890625 145.1502685546875Q146.8511962890625 111.1507568359375 172.92584228515625 91.17596435546875Q199.00048828125 71.201171875 244.2501220703125 71.201171875Z"/>
    <path transform="translate(875.66 220.00) scale(0.032000 -0.032000)" d="M76.299560546875 0V492.500244140625H177.201171875V418.7508544921875H193.101318359375Q207.201171875 449.300537109375 243.0009765625 475.2503662109375Q278.80078125 501.2001953125 349.6505126953125 501.2001953125Q405.900634765625 501.2001953125 449.57562255859375 476.27508544921875Q493.2506103515625 451.3499755859375 518.1255493164062 405.5499267578125Q543.00048828125 359.7498779296875 543.00048828125 296V0H440.098876953125V288.099853515625Q440.098876953125 352.499267578125 408.22418212890625 382.9490966796875Q376.3494873046875 413.39892578125 319.7498779296875 413.39892578125Q255.80029296875 413.39892578125 217.500732421875 371.0491943359375Q179.201171875 328.699462890625 179.201171875 248.8502197265625V0Z"/>
    <path transform="translate(895.34 220.00) scale(0.032000 -0.032000)" d="M228.5496826171875 -14Q176.2496337890625 -14 134.42462158203125 4.1500244140625Q92.599609375 22.300048828125 68.27459716796875 57.27508544921875Q43.9495849609375 92.2501220703125 43.9495849609375 142.2001953125Q43.9495849609375 192.500244140625 68.27459716796875 226.12530517578125Q92.599609375 259.7503662109375 135.22467041015625 276.72540283203125Q177.8497314453125 293.700439453125 231.7498779296875 293.700439453125H382.4488525390625V325.5501708984375Q382.4488525390625 368.9495849609375 356.2491455078125 395.12432861328125Q330.0494384765625 421.299072265625 276.099853515625 421.299072265625Q223.1502685546875 421.299072265625 195.07562255859375 396.29931640625Q167.0009765625 371.299560546875 157.901123046875 330.6500244140625L62.19970703125 361.9505615234375Q74.19970703125 401.700439453125 100.52471923828125 434.2503662109375Q126.8497314453125 466.80029296875 170.82476806640625 486.6502685546875Q214.7998046875 506.500244140625 277.39990234375 506.500244140625Q373.300048828125 506.500244140625 428.02520751953125 457.8502197265625Q482.7503662109375 409.2001953125 482.7503662109375 318.6500244140625V115.80126953125Q482.7503662109375 85.80126953125 510.7503662109375 85.80126953125H553.2001953125V0H476.19970703125Q441.299560546875 0 419.3994140625 18.17498779296875Q397.499267578125 36.3499755859375 397.499267578125 67.0499267578125V70.1497802734375H381.6490478515625Q374.499267578125 54.6500244140625 358.22442626953125 34.62506103515625Q341.9495849609375 14.60009765625 310.899658203125 0.300048828125Q279.8497314453125 -14 228.5496826171875 -14ZM244.2501220703125 71.201171875Q305.6495361328125 71.201171875 344.0491943359375 106.6507568359375Q382.4488525390625 142.100341796875 382.4488525390625 203.699462890625V214.3994140625H237.9500732421875Q197.00048828125 214.3994140625 171.92584228515625 196.77459716796875Q146.8511962890625 179.1497802734375 146.8511962890625 145.1502685546875Q146.8511962890625 111.1507568359375 172.92584228515625 91.17596435546875Q199.00048828125 71.201171875 244.2501220703125 71.201171875Z"/>
    <path transform="translate(913.80 220.00) scale(0.032000 -0.032000)" d="M52.299560546875 244.2501220703125V258.8502197265625Q52.299560546875 336.500244140625 83.47454833984375 391.82525634765625Q114.6495361328125 447.1502685546875 166.67449951171875 476.82525634765625Q218.699462890625 506.500244140625 281.099365234375 506.500244140625Q353.299072265625 506.500244140625 391.62384033203125 479.87542724609375Q429.9486083984375 453.2506103515625 447.698486328125 422.3509521484375H463.5986328125V492.500244140625H563.80029296875V-100.59912109375Q563.80029296875 -146.3494873046875 537.6500244140625 -173.17474365234375Q511.499755859375 -200 465.3494873046875 -200H133.3494873046875V-109.5986328125H432.5487060546875Q461.5986328125 -109.5986328125 461.5986328125 -79.5986328125V77.3994140625H445.698486328125Q434.6485595703125 58.599609375 414.72369384765625 39.82476806640625Q394.798828125 21.0499267578125 362.3489990234375 8.82501220703125Q329.899169921875 -3.39990234375 281.099365234375 -3.39990234375Q218.699462890625 -3.39990234375 166.49951171875 26.27508544921875Q114.299560546875 55.9500732421875 83.299560546875 111.4500732421875Q52.299560546875 166.9500732421875 52.299560546875 244.2501220703125ZM309.39990234375 87.00146484375Q376.1492919921875 87.00146484375 419.52398681640625 129.2510986328125Q462.898681640625 171.500732421875 462.898681640625 246.900146484375V256.2001953125Q462.898681640625 332.599609375 419.8489990234375 374.3492431640625Q376.79931640625 416.098876953125 309.39990234375 416.098876953125Q243.00048828125 416.098876953125 199.4508056640625 374.3492431640625Q155.901123046875 332.599609375 155.901123046875 256.2001953125V246.900146484375Q155.901123046875 171.500732421875 199.4508056640625 129.2510986328125Q243.00048828125 87.00146484375 309.39990234375 87.00146484375Z"/>
    <path transform="translate(934.28 220.00) scale(0.032000 -0.032000)" d="M301.599609375 -14Q227.2496337890625 -14 171.099609375 17.5Q114.9495849609375 49 83.62457275390625 106.32501220703125Q52.299560546875 163.6500244140625 52.299560546875 240.2501220703125V252.2501220703125Q52.299560546875 329.2001953125 83.299560546875 386.3502197265625Q114.299560546875 443.500244140625 169.77459716796875 475.000244140625Q225.2496337890625 506.500244140625 297.8497314453125 506.500244140625Q369.099853515625 506.500244140625 422.57489013671875 475.400146484375Q476.0499267578125 444.300048828125 506.0499267578125 388.199951171875Q536.0499267578125 332.099853515625 536.0499267578125 256.7998046875V217.6495361328125H156.501220703125Q158.8511962890625 152.6505126953125 200.62579345703125 114.52593994140625Q242.400390625 76.4013671875 304.19970703125 76.4013671875Q362.4493408203125 76.4013671875 391.82403564453125 102.201171875Q421.19873046875 128.0009765625 436.6485595703125 161.9505615234375L522.499755859375 118.4498291015625Q508.1497802734375 90 481.6497802734375 59.1500244140625Q455.1497802734375 28.300048828125 411.8497314453125 7.1500244140625Q368.5496826171875 -14 301.599609375 -14ZM157.501220703125 296.9505615234375H431.498291015625Q427.498291015625 352.5496826171875 391.22369384765625 384.32427978515625Q354.9490966796875 416.098876953125 297.19970703125 416.098876953125Q238.500244140625 416.098876953125 202.20068359375 384.32427978515625Q165.901123046875 352.5496826171875 157.501220703125 296.9505615234375Z"/>
    <path transform="translate(952.97 220.00) scale(0.032000 -0.032000)" d="M76.299560546875 0V492.500244140625H177.201171875V434.7503662109375H193.101318359375Q205.1512451171875 465.80029296875 231.3511962890625 480.1502685546875Q257.5511474609375 494.500244140625 296.80078125 494.500244140625H355.7508544921875V402.098876953125H293.0509033203125Q242.60107421875 402.098876953125 210.901123046875 374.67401123046875Q179.201171875 347.2491455078125 179.201171875 289.699462890625V0Z"/>
  </g>
</svg>
